<svg id="Capa_1" data-name="Capa 1" xmlns="http://www.w3.org/2000/svg" viewBox="0 0 102.18 83.89"><defs><style>.cls-1{fill:#257e3e;}</style></defs><title>rc-reciptory copia</title><polygon class="cls-1" points="61.49 73.46 51.98 82.96 51.54 83.42 51.09 83.89 50.65 83.42 50.21 82.96 40.7 73.46 61.49 73.46"/><path class="cls-1" d="M76.05,6.77a23.16,23.16,0,0,0-25-5.12,23.17,23.17,0,0,0-25,5.12L0,32.84,21.91,54.71l.06.06H80.22l22-21.93ZM39.59,45.27H25.9L13.45,32.84l19.4-19.36a13.69,13.69,0,0,1,8-3.88,23.11,23.11,0,0,0,2.41,29.85l1.06,1ZM52.16,32.72h0l-1.06,1.06L50,32.73a13.6,13.6,0,0,1,0-19.24c.35-.33.69-.64,1.07-1a13.91,13.91,0,0,1,1.06.94,13.6,13.6,0,0,1,0,19.24ZM76.28,45.27H62.6L57.82,40.5l1.07-1.07A23.13,23.13,0,0,0,61.29,9.6a13.66,13.66,0,0,1,8,3.88l19.4,19.36Z"/><polygon class="cls-1" points="75.61 59.36 66.09 68.86 36.09 68.86 26.58 59.36 75.61 59.36"/></svg>