<svg width="98" height="90" viewBox="0 0 98 90" fill="none" xmlns="http://www.w3.org/2000/svg">
<rect y="9.53674e-07" width="98" height="90" fill="#C4C4C4"/>
<circle cx="49" cy="45" r="39.5" stroke="#EAEAEA"/>
<circle cx="49" cy="45" r="25" fill="white"/>
<circle cx="88" cy="45" r="5" fill="white"/>
<circle cx="86" cy="43" r="1" fill="#EEEEEE"/>
<path d="M92 46.5C92 47.3284 91.3284 48 90.5 48C89.6716 48 89 47.3284 89 46.5C89 45.6716 89.6716 45 90.5 45C91.3284 45 92 45.6716 92 46.5Z" fill="#EEEEEE"/>
<path d="M86 47.5C86 47.7761 85.7761 48 85.5 48C85.2239 48 85 47.7761 85 47.5C85 47.2239 85.2239 47 85.5 47C85.7761 47 86 47.2239 86 47.5Z" fill="#EEEEEE"/>
<circle r="1" transform="matrix(-1 0 0 1 10 9)" fill="white"/>
<circle r="1.5" transform="matrix(-0.5 -0.866025 -0.866025 0.5 51.049 17.049)" fill="white"/>
<circle r="1.5" transform="matrix(-0.5 -0.866025 -0.866025 0.5 59.049 15.049)" fill="white"/>
<circle r="2.5" transform="matrix(-0.5 -0.866025 -0.866025 0.5 79.4151 83.4151)" fill="white"/>
<circle r="3" transform="matrix(-0.5 -0.866025 -0.866025 0.5 89.6675 70.692)" fill="white"/>
<circle r="1" transform="matrix(-1 0 0 1 75 26)" fill="white"/>
<circle r="1" transform="matrix(-1 0 0 1 86 5)" fill="white"/>
<circle r="1" transform="matrix(-1 0 0 1 90 84)" fill="white"/>
<circle r="1" transform="matrix(-1 0 0 1 8 66)" fill="white"/>
<circle r="1.5" transform="matrix(-1 0 0 1 90.5 18.5)" fill="white"/>
<circle r="1.5" transform="matrix(-1 0 0 1 18.5 14.5)" fill="white"/>
<circle r="1.5" transform="matrix(-1 0 0 1 41.5 79.5)" fill="white"/>
<circle r="1.5" transform="matrix(-1 0 0 1 5.5 85.5)" fill="white"/>
<circle r="1" transform="matrix(-1 0 0 1 9 17)" fill="white"/>
<circle r="1" transform="matrix(-1 0 0 1 17 74)" fill="white"/>
<circle r="1.5" transform="matrix(-1 0 0 1 76.5 64.5)" fill="white"/>
<circle r="1.5" transform="matrix(-0.707107 0.707107 0.707107 0.707107 5.84399 44.0302)" fill="white"/>
<circle r="1.5" transform="matrix(-0.707107 0.707107 0.707107 0.707107 68.0694 73.7286)" fill="white"/>
<circle r="1" transform="matrix(-0.707107 0.707107 0.707107 0.707107 46.8562 87.1637)" fill="white"/>
<circle r="1.5" transform="matrix(-0.707107 0.707107 0.707107 0.707107 82.2115 38.3733)" fill="white"/>
<circle r="1" transform="matrix(0.258819 -0.965926 -0.965926 -0.258819 93.6789 19.3688)" fill="white"/>
<circle r="1" transform="matrix(0.258819 -0.965926 -0.965926 -0.258819 89.2247 75.2247)" fill="white"/>
<circle r="1" transform="matrix(0.258819 -0.965926 -0.965926 -0.258819 80.2247 79.2247)" fill="white"/>
<circle r="1" transform="matrix(0.258819 -0.965926 -0.965926 -0.258819 90.2247 66.2247)" fill="white"/>
<circle r="1" transform="matrix(0.258819 -0.965926 -0.965926 -0.258819 32.2247 87.2247)" fill="white"/>
<circle r="1" transform="matrix(0.258819 -0.965926 -0.965926 -0.258819 15.2247 81.2247)" fill="white"/>
<circle r="1" transform="matrix(0.258819 -0.965926 -0.965926 -0.258819 25.2247 8.22474)" fill="white"/>
<circle r="1" transform="matrix(0.258819 -0.965926 -0.965926 -0.258819 30.2247 25.2247)" fill="white"/>
<circle r="1" transform="matrix(0.258819 -0.965926 -0.965926 -0.258819 60.4349 77.754)" fill="white"/>
<circle r="1" transform="matrix(0.258819 -0.965926 -0.965926 -0.258819 39.1388 2.68425)" fill="white"/>
<circle r="1.5" transform="matrix(0.258819 -0.965926 -0.965926 -0.258819 87.8371 26.8371)" fill="white"/>
<circle r="1.5" transform="matrix(0.258819 -0.965926 -0.965926 -0.258819 17.4283 31.5487)" fill="white"/>
<circle r="1" transform="matrix(0.258819 -0.965926 -0.965926 -0.258819 86.2103 16.3323)" fill="white"/>
<circle r="1" transform="matrix(0.258819 -0.965926 -0.965926 -0.258819 32.2247 13.2247)" fill="white"/>
<circle r="1.5" transform="matrix(0.258819 -0.965926 -0.965926 -0.258819 22.8586 69.2384)" fill="white"/>
<circle r="1.5" transform="matrix(-0.5 -0.866025 -0.866025 0.5 62.049 3.04904)" fill="white"/>
<circle r="1.5" transform="matrix(-0.5 -0.866025 -0.866025 0.5 16.1264 58.7065)" fill="white"/>
<circle r="1" transform="matrix(-0.5 -0.866025 -0.866025 0.5 20.366 44.366)" fill="white"/>
<circle r="1.5" transform="matrix(-0.5 -0.866025 -0.866025 0.5 46.6168 81.5174)" fill="white"/>
</svg>
