<svg width="98" height="90" viewBox="0 0 98 90" fill="none" xmlns="http://www.w3.org/2000/svg">
<rect width="98" height="90" fill="#C4C4C4"/>
<circle cx="49" cy="45" r="39.5" stroke="#EAEAEA"/>
<circle cx="49" cy="45" r="25" fill="white"/>
<circle cx="88" cy="45" r="5" fill="white"/>
<circle cx="86" cy="43" r="1" fill="#EEEEEE"/>
<path d="M92 46.5C92 47.3284 91.3284 48 90.5 48C89.6716 48 89 47.3284 89 46.5C89 45.6716 89.6716 45 90.5 45C91.3284 45 92 45.6716 92 46.5Z" fill="#EEEEEE"/>
<path d="M86 47.5C86 47.7761 85.7761 48 85.5 48C85.2239 48 85 47.7761 85 47.5C85 47.2239 85.2239 47 85.5 47C85.7761 47 86 47.2239 86 47.5Z" fill="#EEEEEE"/>
<circle r="1" transform="matrix(-1 0 0 1 10 9)" fill="white"/>
<circle r="1" transform="matrix(-1 0 0 1 75 26)" fill="white"/>
<circle r="1" transform="matrix(-1 0 0 1 86 5)" fill="white"/>
<circle r="1" transform="matrix(-1 0 0 1 90 84)" fill="white"/>
<circle r="1" transform="matrix(-1 0 0 1 8 66)" fill="white"/>
<circle r="1.5" transform="matrix(-1 0 0 1 90.5 18.5)" fill="white"/>
<circle r="1.5" transform="matrix(-1 0 0 1 18.5 14.5)" fill="white"/>
<circle r="1.5" transform="matrix(-1 0 0 1 41.5 79.5)" fill="white"/>
<circle r="1.5" transform="matrix(-1 0 0 1 5.5 85.5)" fill="white"/>
<circle r="1" transform="matrix(-1 0 0 1 9 17)" fill="white"/>
<circle r="1" transform="matrix(-1 0 0 1 17 74)" fill="white"/>
<circle r="1.5" transform="matrix(-1 0 0 1 76.5 64.5)" fill="white"/>
</svg>
